<?xml version="1.0" encoding="iso-8859-1"?>
<!-- Generator: Adobe Illustrator 19.0.0, SVG Export Plug-In . SVG Version: 6.00 Build 0)  -->
<svg version="1.1" id="Capa_1" xmlns="http://www.w3.org/2000/svg" xmlns:xlink="http://www.w3.org/1999/xlink" x="0px" y="0px"
	 viewBox="0 0 512 512" style="enable-background:new 0 0 512 512;" xml:space="preserve">
<g>
	<path style="fill:#2B292C;" d="M497,422h-18.578c-30.908,0-62.172-12.539-84.027-34.395c-7.993-7.993-17.152-14.189-14.854-24.639
		l10.811-49.189c2.488-11.353,16.696-15.908,25.254-7.383C431.88,322.669,455.409,332,478.422,332H497c8.291,0,15,6.709,15,15v60
		C512,415.291,505.291,422,497,422z"/>
	<path style="fill:#2B292C;" d="M435,512h-17.578c-38.379,0-74.414-18.823-96.401-50.361c-4.116-5.918-3.457-13.916,1.582-19.072
		l30.498-31.201c4.907-5.024,12.642-5.933,18.574-2.285c13.77,8.452,29.575,12.92,45.747,12.92H435c8.291,0,15,6.709,15,15v60
		C450,505.291,443.291,512,435,512z"/>
</g>
<path style="fill:#57555C;" d="M210,0C94.2,0,0,96.2,0,212v90c0,115.8,94.2,210,210,210s210-94.2,210-210v-90
	C420,96.2,325.8,0,210,0z"/>
<path style="fill:#3C3A41;" d="M420,212v90c0,115.8-94.2,210-210,210V0C325.8,0,420,96.2,420,212z"/>
<path style="fill:#FEDBAB;" d="M210,152C92.1,152,0,198.199,0,257c0,58.799,92.1,105,210,105s210-46.201,210-105
	C420,198.199,327.9,152,210,152z"/>
<path style="fill:#FEC478;" d="M420,257c0,58.799-92.1,105-210,105V152C327.9,152,420,198.199,420,257z"/>
<path style="fill:#787780;" d="M158.291,300.418l-60-30c-7.412-3.706-10.415-12.715-6.709-20.127
	c3.721-7.412,12.7-10.386,20.127-6.709l60,30c7.412,3.706,10.415,12.715,6.709,20.127
	C174.732,301.06,165.778,304.136,158.291,300.418z"/>
<path style="fill:#57555C;" d="M241.582,293.709c-3.706-7.412-0.703-16.421,6.709-20.127l60-30
	c7.427-3.677,16.406-0.703,20.127,6.709c3.706,7.412,0.703,16.421-6.709,20.127l-60,30
	C254.222,304.136,245.268,301.06,241.582,293.709z"/>
<g>
</g>
<g>
</g>
<g>
</g>
<g>
</g>
<g>
</g>
<g>
</g>
<g>
</g>
<g>
</g>
<g>
</g>
<g>
</g>
<g>
</g>
<g>
</g>
<g>
</g>
<g>
</g>
<g>
</g>
</svg>
